<svg id="Layer_1" data-name="Layer 1" xmlns="http://www.w3.org/2000/svg" viewBox="0 0 50 50"><defs><style>.cls-1{fill:#fff;}</style></defs><title>bandcamp</title><g id="g5246"><rect id="rect5228" width="50" height="50" rx="6.25" ry="6.25"/><g id="g5230"><path id="path5232" class="cls-1" d="M12.72,18.62l-7.26,13H19.39l7.26-13H12.72Z"/><g id="g5234"><path id="path5236" class="cls-1" d="M27.39,18.39v13H29.2V30.65a3,3,0,0,0,2.24,1,3.69,3.69,0,0,0,2.85-1.35,5.54,5.54,0,0,0,1.18-3.77,6.51,6.51,0,0,0-.28-1.92A4.88,4.88,0,0,0,34.41,23a3.38,3.38,0,0,0-1.27-1,3.81,3.81,0,0,0-1.63-.36,3.09,3.09,0,0,0-2.2.89V18.39H27.39Zm4,5a1.83,1.83,0,0,1,1.49.77,4,4,0,0,1,.64,2.49,3.88,3.88,0,0,1-.66,2.48h0a1.89,1.89,0,0,1-3.26-.29,4.73,4.73,0,0,1-.4-2.25,3.73,3.73,0,0,1,.66-2.4,1.9,1.9,0,0,1,1.53-.8h0Z"/><path id="path5238" class="cls-1" d="M40.63,21.65a4.38,4.38,0,0,0-2.21.58A3.6,3.6,0,0,0,36.89,24a6.74,6.74,0,0,0-.49,2.67,5.29,5.29,0,0,0,1.16,3.65,4,4,0,0,0,3.06,1.29,3.74,3.74,0,0,0,2.57-.94,4.21,4.21,0,0,0,1.3-2.59l0-.22-0.22,0-1.47-.2-0.21,0,0,0.22a2.59,2.59,0,0,1-.68,1.58,1.83,1.83,0,0,1-1.32.5A2,2,0,0,1,39,29.14a4,4,0,0,1-.63-2.52,3.86,3.86,0,0,1,.65-2.5,2.05,2.05,0,0,1,1.67-.76,1.64,1.64,0,0,1,1.14.41A2.29,2.29,0,0,1,42.49,25l0,0.2,0.19,0L44.18,25l0.22,0,0-.22a3.7,3.7,0,0,0-1.25-2.26A3.79,3.79,0,0,0,40.63,21.65Z"/></g></g></g></svg>