<svg id="Layer_1" data-name="Layer 1" xmlns="http://www.w3.org/2000/svg" viewBox="0 0 50 50"><defs><style>.cls-1{fill:#ef4123;}.cls-2{fill:#fff;}</style></defs><title>fontli</title><g id="g5830"><rect id="rect2987" class="cls-1" width="50" height="50" rx="6.25" ry="6.25"/></g><path class="cls-2" d="M31.78,18.87c-0.65-2.16-1.21-2.22-4.45-.46A17.51,17.51,0,0,1,24.08,20a31.52,31.52,0,0,1,.3-3.76c0.45-4,1.21-6.44,2-6.44s1.15,1.39.52,2.58a1.68,1.68,0,0,0,1.6,2.58c2.27,0,3.42-5.05,1.62-7.11-2.71-3.1-8-.57-9.36,4.48-0.27,1-.74,3.55-1,5.67-0.36,2.52-.85,4-1.44,4.48-0.82.61-.83,0.73-0.05,1.34s0.89,1.91,1.06,7.88c0.18,6.13.37,7.53,1.31,9.35a6.3,6.3,0,0,0,1.93,2.45c4.1,1.57,6.94-1.71,6.92-8,0-4.48-1.15-7.45-3.95-10.35L23.67,23.2l2.27-.59A25.23,25.23,0,0,0,30.16,21C31.81,20.17,32.07,19.83,31.78,18.87ZM24.62,28a12.72,12.72,0,0,1,1.79,6.49c0,1.91-.71,3.58-1.29,3s-1.27-4.3-1.25-7.39C23.88,27.27,23.94,27.09,24.62,28Z"/></svg>