<?xml version="1.0" encoding="utf-8"?>
<!-- Generator: Adobe Illustrator 16.0.0, SVG Export Plug-In . SVG Version: 6.00 Build 0)  -->
<!DOCTYPE svg PUBLIC "-//W3C//DTD SVG 1.1//EN" "http://www.w3.org/Graphics/SVG/1.1/DTD/svg11.dtd">
<svg version="1.1" id="Layer_1" xmlns="http://www.w3.org/2000/svg" xmlns:xlink="http://www.w3.org/1999/xlink" x="0px" y="0px"
	 width="88.609px" height="49.396px" viewBox="0 0 88.609 49.396" enable-background="new 0 0 88.609 49.396" xml:space="preserve">
<g>
	<polygon fill="#FF555D" points="51.628,46.594 51.726,25.958 38.244,2.607 38.244,23.414 	"/>
	<polygon fill="#FF555D" points="13.484,25.958 0,2.607 0,49.312 	"/>
	<path fill="#FF555D" d="M60.113,0.702c0.742,0.549,1.119,1.274,1.119,1.274l27.377,47.415c0-0.002-17.816-0.002-17.816-0.002
		s-1.688,0.142-2.826-0.892c-0.786-0.712-1.436-1.835-1.436-1.835L40.33,1.275c0,0,0.219-1.273,1.986-1.273
		c0.535,0,15.285,0,15.285,0S59.072-0.068,60.113,0.702z"/>
	<path fill="#FF555D" d="M21.871,0.702c0.742,0.549,1.117,1.274,1.117,1.274l26.679,46.205c0,0.073-0.248,1.208-2.979,1.208
		c-4.854,0-14.139,0-14.139,0s-1.688,0.142-2.827-0.892c-0.787-0.712-1.437-1.835-1.437-1.835L2.086,1.275
		c0,0,0.222-1.273,1.986-1.273c0.535,0,15.285,0,15.285,0S20.83-0.068,21.871,0.702z"/>
</g>
</svg>
