<svg id="Layer_1" data-name="Layer 1" xmlns="http://www.w3.org/2000/svg" viewBox="0 0 50 50"><defs><style>.cls-1{fill:#ca2127;}.cls-2{fill:#fff;}</style></defs><title>pinterest</title><g id="g5830"><rect id="rect2987" class="cls-1" width="50" height="50" rx="6.25" ry="6.25"/><path id="path15" class="cls-2" d="M25.92,5.47c-10.66,0-16,7.64-16,14,0,3.86,1.46,7.29,4.59,8.57a0.77,0.77,0,0,0,1.12-.56c0.1-.39.35-1.39,0.46-1.8a1.09,1.09,0,0,0-.32-1.25A6.47,6.47,0,0,1,14.25,20,10.63,10.63,0,0,1,25.3,9.3c6,0,9.34,3.68,9.34,8.6,0,6.47-2.86,11.93-7.11,11.93A3.47,3.47,0,0,1,24,25.5c0.67-2.84,2-5.91,2-8,0-1.84-1-3.37-3-3.37-2.4,0-4.33,2.48-4.33,5.81a8.63,8.63,0,0,0,.72,3.55L16.44,35.76a25.15,25.15,0,0,0-.07,8.52,0.3,0.3,0,0,0,.53.13,23.93,23.93,0,0,0,4-7.34c0.28-1,1.58-6.17,1.58-6.17,0.78,1.49,3.06,2.8,5.48,2.8,7.21,0,12.11-6.57,12.11-15.38C40.12,11.67,34.48,5.47,25.92,5.47Z"/></g></svg>