<svg id="Layer_1" data-name="Layer 1" xmlns="http://www.w3.org/2000/svg" xmlns:xlink="http://www.w3.org/1999/xlink" viewBox="0 0 50 50"><defs><style>.cls-1{fill:url(#linear-gradient);}.cls-2{fill:#fff;}</style><linearGradient id="linear-gradient" x1="25" x2="25" y2="50" gradientUnits="userSpaceOnUse"><stop offset="0" stop-color="#f7941e"/><stop offset="0" stop-color="#f68b1f"/><stop offset="0" stop-color="#f6871f"/><stop offset="0.24" stop-color="#f57e20"/><stop offset="0.63" stop-color="#f36621"/><stop offset="1" stop-color="#f04923"/></linearGradient></defs><title>soundcloud</title><g id="g3763"><rect id="rect2987" class="cls-1" width="50" height="50" rx="6.25" ry="6.25"/></g><polygon class="cls-2" points="23.73 30.95 23.73 30.95 23.73 30.95 23.73 30.95"/><path class="cls-2" d="M22.25,26.86L22,18.31a0.47,0.47,0,0,0-.95,0l-0.21,8.55L21.06,31A0.47,0.47,0,0,0,22,31h0Z"/><path class="cls-2" d="M20.56,26.86L20.3,18a0.44,0.44,0,0,0-.88,0l-0.23,8.87L19.42,31a0.44,0.44,0,0,0,.88,0h0Z"/><circle class="cls-2" cx="23.73" cy="30.95"/><polygon class="cls-2" points="23.73 30.95 23.73 30.95 23.73 30.95 23.73 30.95"/><polygon class="cls-2" points="16.91 31.06 16.91 31.06 16.91 31.06 16.91 31.06"/><path class="cls-2" d="M16.91,18a0.37,0.37,0,0,0-.74,0L15.9,26.86l0.27,4.21a0.37,0.37,0,0,0,.74,0l0.31-4.2Z"/><polygon class="cls-2" points="18.6 31.04 18.6 31.04 18.6 31.04 18.6 31.04"/><path class="cls-2" d="M18.6,17.75a0.41,0.41,0,0,0-.81,0l-0.25,9.11L17.79,31a0.41,0.41,0,0,0,.81,0l0.28-4.18Z"/><path class="cls-2" d="M10.07,31.33a0.24,0.24,0,0,0,.23-0.23l0.4-4.24-0.4-4.39a0.23,0.23,0,0,0-.47,0L9.48,26.85,9.83,31.1A0.24,0.24,0,0,0,10.07,31.33Z"/><path class="cls-2" d="M23.95,26.86L23.73,16.69a0.52,0.52,0,0,0-.23-0.42,0.5,0.5,0,0,0-.55,0,0.52,0.52,0,0,0-.23.42v0.1L22.52,26.86l0.19,4.09v0a0.51,0.51,0,0,0,.51.49,0.5,0.5,0,0,0,.36-0.15,0.52,0.52,0,0,0,.15-0.36l0-.4Z"/><path class="cls-2" d="M11.94,22.79a0.27,0.27,0,0,0-.54,0l-0.33,4.07,0.33,4.28a0.27,0.27,0,0,0,.54,0l0.38-4.28Z"/><path class="cls-2" d="M13.28,19.94a0.31,0.31,0,0,0-.3.3l-0.31,6.62L13,31.13a0.3,0.3,0,0,0,.61,0h0l0.35-4.28-0.35-6.62A0.31,0.31,0,0,0,13.28,19.94Z"/><path class="cls-2" d="M15.22,31.13h0l0.33-4.25-0.33-8.13a0.34,0.34,0,0,0-.67,0l-0.29,8.13,0.29,4.25A0.34,0.34,0,0,0,15.22,31.13Z"/><polygon class="cls-2" points="11.94 31.13 11.94 31.13 11.94 31.13 11.94 31.13"/><path class="cls-2" d="M25.18,15.3a0.53,0.53,0,0,0-.62,0,0.55,0.55,0,0,0-.2.42v0.06l-0.22,11,0.11,2,0.11,2a0.54,0.54,0,0,0,1.08,0h0l0.24-4h0l-0.24-11.1A0.55,0.55,0,0,0,25.18,15.3Z"/><path class="cls-2" d="M5.43,29.19A0.17,0.17,0,0,0,5.59,29l0.35-2.19L5.59,24.63a0.17,0.17,0,0,0-.16-0.16,0.17,0.17,0,0,0-.16.16L5,26.85,5.27,29A0.17,0.17,0,0,0,5.43,29.19Z"/><path class="cls-2" d="M6.91,30.53a0.17,0.17,0,0,0,.17-0.16l0.45-3.52-0.45-3.6a0.17,0.17,0,0,0-.33,0l-0.39,3.6,0.39,3.52A0.17,0.17,0,0,0,6.91,30.53Z"/><path class="cls-2" d="M8.48,31.16a0.21,0.21,0,0,0,.2-0.2l0.42-4.11L8.68,22.59a0.21,0.21,0,0,0-.2-0.2,0.21,0.21,0,0,0-.2.2L7.91,26.85,8.28,31A0.21,0.21,0,0,0,8.48,31.16Z"/><path class="cls-2" d="M40.1,21.61a4.92,4.92,0,0,0-1.91.38,8.69,8.69,0,0,0-8.66-7.92,8.8,8.8,0,0,0-3.15.59,0.56,0.56,0,0,0-.47.58V30.87a0.58,0.58,0,0,0,.53.57H40.1A4.91,4.91,0,1,0,40.1,21.61Z"/></svg>