<svg id="Layer_1" data-name="Layer 1" xmlns="http://www.w3.org/2000/svg" viewBox="0 0 50 50"><defs><style>.cls-1{fill:#00abf1;}.cls-2{fill:#fff;}</style></defs><title>twitter</title><g id="g3763"><rect id="rect2987" class="cls-1" width="50" height="50" rx="6.25" ry="6.25"/><g id="layer1"><path id="path5" class="cls-2" d="M44.53,12.88a16,16,0,0,1-4.6,1.26,8,8,0,0,0,3.52-4.43,16,16,0,0,1-5.09,1.94A8,8,0,0,0,24.71,19,22.75,22.75,0,0,1,8.19,10.59a8,8,0,0,0,2.48,10.7,8,8,0,0,1-3.63-1s0,0.07,0,.1a8,8,0,0,0,6.43,7.86,8,8,0,0,1-3.62.14A8,8,0,0,0,17.33,34,16.16,16.16,0,0,1,5.47,37.27a22.68,22.68,0,0,0,12.29,3.6c14.74,0,22.8-12.21,22.8-22.8q0-.52,0-1a16.29,16.29,0,0,0,4-4.15h0Z"/></g></g></svg>